<?xml version="1.0" encoding="UTF-8"?>
<svg xmlns="http://www.w3.org/2000/svg" version="1.1" viewBox="0 0 512 512">
  <defs>
    <style>
      .cls-1 {
        fill: #ccc;
      }
    </style>
  </defs>
  <!-- Generator: Adobe Illustrator 28.6.0, SVG Export Plug-In . SVG Version: 1.2.0 Build 709)  -->
  <g>
    <g id="Layer_1">
      <path class="cls-1" d="M84,189.7h344q-3.1,42.3-4.6,60.5l-.5,6.3c-.5,5.6-.9,11.2-1.4,16.8l-1,12.3c-.9,11.1-1.8,22.1-2.8,33.2l-.2,1.9-.2,1.9c-.8,10.1-1.7,20.3-2.5,30.4-.9,10.5-1.7,21-2.6,31.5-.5,5.9-1,11.7-1.5,17.6-.5,5.5-.9,11-1.4,16.5-.2,2-.3,4-.5,6q-3.3,40.7-17.1,52.8c-8.4,6.3-17.5,8.6-27.8,8.5h-2.9c-3.2,0-6.4,0-9.6,0-2.3,0-4.6,0-6.9,0-5.6,0-11.2,0-16.8,0-4.6,0-9.1,0-13.7,0h-2s-4,0-4,0c-12.4,0-24.8,0-37.2,0-10.6,0-21.2,0-31.9,0-13.7,0-27.4,0-41,0h-2c-4.6,0-9.1,0-13.7,0-6.1,0-12.3,0-18.4,0-2.2,0-4.5,0-6.7,0-3.1,0-6.2,0-9.2,0h-2.7c-10.9,0-20.1-3.9-28.1-11.2-14-15.8-13-36.6-14.6-56.6l-.6-7.4c-.5-5.9-1-11.9-1.5-17.8-.6-6.9-1.1-13.8-1.7-20.7-1-12.3-2-24.7-3.1-37-1.1-13.5-2.2-26.9-3.3-40.4-1.5-17.8-2.9-35.5-4.4-53.3-.5-6.6-1.1-13.1-1.6-19.7l-.7-9c-.3-3.2-.5-6.5-.8-9.7l-.2-2.9-.2-2.6-.2-2.3c-.1-1.9-.1-3.7-.1-5.6ZM165.5,221.1c-3.8,5.1-3.7,10.4-3.7,16.6v2.3c0,2.6,0,5.1,0,7.7v5.5c0,5,0,10,0,15,0,3.1,0,6.3,0,9.4,0,9.8,0,19.6,0,29.3,0,11.3,0,22.6,0,33.9,0,8.7,0,17.5,0,26.2,0,5.2,0,10.4,0,15.6,0,4.9,0,9.8,0,14.7,0,1.8,0,3.6,0,5.4,0,2.5,0,4.9,0,7.4v2.1c0,5,.9,9.5,3,14,4.2,4.1,7.2,4.8,13,4.7,3.3-.4,5.2-1.6,7.7-3.8,3.8-5.1,3.7-10.4,3.7-16.6v-2.3c0-2.6,0-5.1,0-7.7v-5.5c0-5,0-10,0-15,0-12.9,0-25.8,0-38.7,0-11.3,0-22.6,0-33.9,0-8.7,0-17.5,0-26.2,0-5.2,0-10.4,0-15.6,0-4.9,0-9.8,0-14.7,0-1.8,0-3.6,0-5.4,0-2.5,0-4.9,0-7.4v-2.1c0-5-.9-9.5-3-14-4.2-4.1-7.2-4.8-13-4.7-3.3.4-5.2,1.6-7.7,3.8h0ZM246.1,221.1c-3.8,5.1-3.7,10.4-3.7,16.6v2.3c0,2.6,0,5.1,0,7.7v5.5c0,5,0,10,0,15,0,3.1,0,6.3,0,9.4,0,9.8,0,19.6,0,29.3,0,11.3,0,22.6,0,33.9,0,8.7,0,17.5,0,26.2,0,5.2,0,10.4,0,15.6,0,4.9,0,9.8,0,14.7,0,1.8,0,3.6,0,5.4,0,2.5,0,4.9,0,7.4v2.1c0,5,.9,9.5,3,14,4.2,4.1,7.2,4.8,13,4.7,3.3-.4,5.2-1.6,7.7-3.8,3.8-5.1,3.7-10.4,3.7-16.6v-2.3c0-2.6,0-5.1,0-7.7v-5.5c0-5,0-10,0-15,0-12.9,0-25.8,0-38.7,0-11.3,0-22.6,0-33.9,0-8.7,0-17.5,0-26.2,0-5.2,0-10.4,0-15.6,0-4.9,0-9.8,0-14.7,0-1.8,0-3.6,0-5.4,0-2.5,0-4.9,0-7.4v-2.1c0-5-.9-9.5-3-14-4.2-4.1-7.2-4.8-13-4.7-3.3.4-5.2,1.6-7.7,3.8h0ZM326.8,221.1c-3.8,5.1-3.7,10.4-3.7,16.6v2.3c0,2.6,0,5.1,0,7.7v5.5c0,5,0,10,0,15,0,3.1,0,6.3,0,9.4,0,9.8,0,19.6,0,29.3,0,11.3,0,22.6,0,33.9,0,8.7,0,17.5,0,26.2,0,5.2,0,10.4,0,15.6,0,4.9,0,9.8,0,14.7,0,1.8,0,3.6,0,5.4,0,2.5,0,4.9,0,7.4v2.1c0,5,.9,9.5,3,14,4.2,4.1,7.2,4.8,13,4.7,3.3-.4,5.2-1.6,7.7-3.8,3.8-5.1,3.7-10.4,3.7-16.6v-2.3c0-2.6,0-5.1,0-7.7v-5.5c0-5,0-10,0-15,0-4.2,0-8.4,0-12.5,0-9.9,0-19.7,0-29.6,0-10.2,0-20.4,0-30.5,0-8.7,0-17.5,0-26.2s0-10.4,0-15.7c0-4.9,0-9.8,0-14.7,0-1.8,0-3.6,0-5.4,0-2.5,0-4.9,0-7.4v-2.2c0-5.5-.5-10.2-4.2-14.5-4.1-3.5-6.4-4.1-11.7-4-3.3.4-5.2,1.7-7.6,3.9h0ZM216.6,26.5h2.2s2.4,0,2.4,0h2.5c2.7,0,5.5,0,8.2,0h2.8c4.9,0,9.9,0,14.8,0,5.1,0,10.2,0,15.3,0,3.9,0,7.9,0,11.8,0,1.9,0,3.7,0,5.6,0,15.5-.1,26.7,1.8,38.5,12.6,7,7.5,10.1,17.7,13.2,27.3l1.1,3.3q2.6,7.9,2.6,11h3.3c10.3-.1,20.5-.2,30.8-.2,5.3,0,10.6,0,15.8-.1,5.1,0,10.2,0,15.3,0,1.9,0,3.9,0,5.8,0,15.8-.2,27,1.4,38.9,12.6,5.8,6.2,10.2,14.7,10.3,23.3v2.4s0,2.6,0,2.6v2.7c0,1.9,0,3.8,0,5.7,0,2.9,0,5.8,0,8.7,0,1.8,0,3.7,0,5.5v2.6c0,5.1-.4,8.2-4,12.2-3.7,2.7-6.3,3-10.8,3h-1.9c-2.1,0-4.2,0-6.4,0-1.5,0-3.1,0-4.6,0-4.2,0-8.5,0-12.7,0-4.6,0-9.1,0-13.7,0-8.9,0-17.9,0-26.8,0-10.4,0-20.8,0-31.2,0-18.6,0-37.1,0-55.7,0-21.4,0-42.7,0-64.1.1h-3.3s-3.3,0-3.3,0c-17.2,0-34.3,0-51.5,0h-18.6c-9.9,0-19.7,0-29.6,0-4.5,0-9,0-13.5,0-4.1,0-8.3,0-12.4,0-1.5,0-3,0-4.5,0q-27.1,0-33.5-5.5c-2.2-3.9-2-7.5-2-11.9v-2.7c0-1.9,0-3.8,0-5.7,0-2.9,0-5.8,0-8.6,0-15.1,2.1-25.7,12.7-37,6-5.7,14.6-10.3,23-10.3h2.3s2.5,0,2.5,0h2.6c2.9,0,5.7,0,8.6,0h6c5.2,0,10.4,0,15.7,0,5.3,0,10.7,0,16,0,10.5,0,20.9,0,31.4,0l.4-1.7.5-2.2.5-2.2c1.1-4.7,2.7-9.2,4.3-13.7l1-3.1c4.2-12.2,10.6-21.6,22.3-27.4,4.5-2.2,8.2-3.7,13.3-3.8h0ZM211.3,58.6c-2.5,3.4-3.7,7.3-4.9,11.3l-.7,2.2q-1.3,4.1-1.7,8.4h103.9q-2.3-12.7-8.8-23.5c-5.2-2.9-10-3.6-15.9-3.6h-2c-2.1,0-4.3,0-6.4,0-4.6,0-9.3,0-13.9,0-4,0-8,0-12,0-3.1,0-6.2,0-9.3,0-1.5,0-2.9,0-4.4,0q-12.9-.4-23.9,5.4h0Z"/>
    </g>
  </g>
</svg>
